<svg width="100" height="25" viewBox="0 0 100 25" fill="none" xmlns="http://www.w3.org/2000/svg">
<path fill-rule="evenodd" clip-rule="evenodd" d="M23.0672 0.629333V23.5185H0.169922L23.0672 0.629333Z" fill="#E31B1E"/>
<path fill-rule="evenodd" clip-rule="evenodd" d="M39.34 16.0071C39.34 19.0171 41.6844 20.191 44.3484 20.191C46.0914 20.191 48.7537 19.6827 48.7537 17.3692C48.7537 14.9294 45.3604 14.5172 42.0349 13.6309C38.6742 12.7413 35.2801 11.4437 35.2801 7.19459C35.2801 2.56842 39.6528 0.351074 43.7453 0.351074C48.4685 0.351074 52.8161 2.40873 52.8161 7.64191H47.9926C47.8361 4.9137 45.8999 4.21639 43.5237 4.21639C41.9387 4.21639 40.0995 4.8836 40.0995 6.78407C40.0995 8.52818 41.1776 8.75058 46.8517 10.2046C48.5011 10.6193 53.5713 11.6652 53.5713 16.7981C53.5713 20.9502 50.311 24.0555 44.1593 24.0555C39.1476 24.0555 34.4571 21.5848 34.5182 16.0071H39.34Z" fill="white"/>
<path fill-rule="evenodd" clip-rule="evenodd" d="M56.5195 0.886169H61.4969V9.5733H70.663V0.886169H75.6388V23.5187H70.663V13.7563H61.4969V23.5187H56.5195V0.886169Z" fill="white"/>
<path fill-rule="evenodd" clip-rule="evenodd" d="M91.1193 23.5188H85.5079L78.1543 0.886292H83.2881L88.3274 16.7974H88.3918L93.4964 0.886292H98.636L91.1193 23.5188Z" fill="white"/>
</svg>
